<?xml version="1.0" encoding="UTF-8" standalone="no"?>
<!DOCTYPE svg PUBLIC "-//W3C//DTD SVG 1.1//EN"
 "http://www.w3.org/Graphics/SVG/1.1/DTD/svg11.dtd">
<!-- Generated by graphviz version 2.40.1 (20161225.0304)
 -->
<!-- Title: output_partition_boxes Pages: 1 -->
<svg width="504pt" height="44pt"
 viewBox="0.00 0.00 504.00 44.00" xmlns="http://www.w3.org/2000/svg" xmlns:xlink="http://www.w3.org/1999/xlink">
<g id="graph0" class="graph" transform="scale(1 1) rotate(0) translate(4 40)">
<title>output_partition_boxes</title>
<polygon fill="#ffffff" stroke="transparent" points="-4,4 -4,-40 500,-40 500,4 -4,4"/>
<!-- 0 -->
<g id="node1" class="node">
<title>0</title>
<polygon fill="none" stroke="#000000" points="130,-36 0,-36 0,0 130,0 130,-36"/>
<polygon fill="none" stroke="#000000" points="11,-7 11,-28 79,-28 79,-7 11,-7"/>
<text text-anchor="start" x="14" y="-13.8" font-family="Times,serif" font-size="14.00" fill="#000000">[0, 1, 2, 4]</text>
<polygon fill="none" stroke="#000000" points="81,-7 81,-28 119,-28 119,-7 81,-7"/>
<text text-anchor="start" x="84" y="-13.8" font-family="Times,serif" font-size="14.00" fill="#000000">[5, 3]</text>
<polygon fill="none" stroke="#000000" points="8,-4.5 8,-31.5 122,-31.5 122,-4.5 8,-4.5"/>
</g>
<!-- 1 -->
<g id="node2" class="node">
<title>1</title>
<polygon fill="none" stroke="#000000" points="248,-36 148,-36 148,0 248,0 248,-36"/>
<polygon fill="none" stroke="#000000" points="159,-7 159,-28 212,-28 212,-7 159,-7"/>
<text text-anchor="start" x="162" y="-13.8" font-family="Times,serif" font-size="14.00" fill="#000000">[0, 2, 4]</text>
<polygon fill="none" stroke="#000000" points="214,-7 214,-28 237,-28 237,-7 214,-7"/>
<text text-anchor="start" x="217" y="-13.8" font-family="Times,serif" font-size="14.00" fill="#000000">[1]</text>
<polygon fill="none" stroke="#000000" points="156,-4.5 156,-31.5 240,-31.5 240,-4.5 156,-4.5"/>
</g>
<!-- 2 -->
<g id="node3" class="node">
<title>2</title>
<polygon fill="none" stroke="#000000" points="351.5,-36 266.5,-36 266.5,0 351.5,0 351.5,-36"/>
<polygon fill="none" stroke="#000000" points="278,-7 278,-28 316,-28 316,-7 278,-7"/>
<text text-anchor="start" x="281" y="-13.8" font-family="Times,serif" font-size="14.00" fill="#000000">[0, 4]</text>
<polygon fill="none" stroke="#000000" points="318,-7 318,-28 341,-28 341,-7 318,-7"/>
<text text-anchor="start" x="321" y="-13.8" font-family="Times,serif" font-size="14.00" fill="#000000">[2]</text>
<polygon fill="none" stroke="#000000" points="274.5,-4.5 274.5,-31.5 343.5,-31.5 343.5,-4.5 274.5,-4.5"/>
</g>
<!-- 3 -->
<g id="node4" class="node">
<title>3</title>
<polygon fill="none" stroke="#000000" points="424,-36 370,-36 370,0 424,0 424,-36"/>
<polygon fill="none" stroke="#000000" points="382,-7 382,-28 396,-28 396,-7 382,-7"/>
<text text-anchor="start" x="385" y="-13.8" font-family="Times,serif" font-size="14.00" fill="#000000">0</text>
<polygon fill="none" stroke="#000000" points="398,-7 398,-28 412,-28 412,-7 398,-7"/>
<text text-anchor="start" x="401" y="-13.8" font-family="Times,serif" font-size="14.00" fill="#000000">4</text>
<polygon fill="none" stroke="#000000" points="379,-4.5 379,-31.5 415,-31.5 415,-4.5 379,-4.5"/>
</g>
<!-- 4 -->
<g id="node5" class="node">
<title>4</title>
<polygon fill="none" stroke="#000000" points="496,-36 442,-36 442,0 496,0 496,-36"/>
<polygon fill="none" stroke="#000000" points="454,-7 454,-28 468,-28 468,-7 454,-7"/>
<text text-anchor="start" x="457" y="-13.8" font-family="Times,serif" font-size="14.00" fill="#000000">5</text>
<polygon fill="none" stroke="#000000" points="470,-7 470,-28 484,-28 484,-7 470,-7"/>
<text text-anchor="start" x="473" y="-13.8" font-family="Times,serif" font-size="14.00" fill="#000000">3</text>
<polygon fill="none" stroke="#000000" points="451,-4.5 451,-31.5 487,-31.5 487,-4.5 451,-4.5"/>
</g>
</g>
</svg>
