<?xml version="1.0" encoding="UTF-8" standalone="no"?>
<!DOCTYPE svg PUBLIC "-//W3C//DTD SVG 1.1//EN"
 "http://www.w3.org/Graphics/SVG/1.1/DTD/svg11.dtd">
<!-- Generated by graphviz version 2.40.1 (20161225.0304)
 -->
<!-- Title: Partition Tree Pages: 1 -->
<svg width="574pt" height="332pt"
 viewBox="0.00 0.00 573.79 332.00" xmlns="http://www.w3.org/2000/svg" xmlns:xlink="http://www.w3.org/1999/xlink">
<g id="graph0" class="graph" transform="scale(1 1) rotate(0) translate(4 328)">
<title>Partition Tree</title>
<polygon fill="#ffffff" stroke="transparent" points="-4,4 -4,-328 569.7935,-328 569.7935,4 -4,4"/>
<!-- [[10, 5], [8, 6], [4, 13], [10, 3], [8, 4], [4, 1]] -->
<g id="node1" class="node">
<title>[[10, 5], [8, 6], [4, 13], [10, 3], [8, 4], [4, 1]]</title>
<ellipse fill="none" stroke="#000000" cx="369.3968" cy="-306" rx="178.9686" ry="18"/>
<text text-anchor="middle" x="369.3968" y="-302.3" font-family="Times,serif" font-size="14.00" fill="#000000">[[10, 5], [8, 6], [4, 13], [10, 3], [8, 4], [4, 1]]</text>
</g>
<!-- [[10, 5], [8, 6], [4, 13], [8, 4]] -->
<g id="node2" class="node">
<title>[[10, 5], [8, 6], [4, 13], [8, 4]]</title>
<ellipse fill="none" stroke="#000000" cx="265.3968" cy="-234" rx="122.6784" ry="18"/>
<text text-anchor="middle" x="265.3968" y="-230.3" font-family="Times,serif" font-size="14.00" fill="#000000">[[10, 5], [8, 6], [4, 13], [8, 4]]</text>
</g>
<!-- [[10, 5], [8, 6], [4, 13], [10, 3], [8, 4], [4, 1]]&#45;&gt;[[10, 5], [8, 6], [4, 13], [8, 4]] -->
<g id="edge1" class="edge">
<title>[[10, 5], [8, 6], [4, 13], [10, 3], [8, 4], [4, 1]]&#45;&gt;[[10, 5], [8, 6], [4, 13], [8, 4]]</title>
<path fill="none" stroke="#000000" d="M343.4215,-288.0171C330.1684,-278.8419 313.8766,-267.563 299.614,-257.6888"/>
<polygon fill="#000000" stroke="#000000" points="301.2552,-254.5682 291.041,-251.7537 297.2707,-260.3235 301.2552,-254.5682"/>
</g>
<!-- [[4, 1], [10, 3]] -->
<g id="node3" class="node">
<title>[[4, 1], [10, 3]]</title>
<ellipse fill="none" stroke="#000000" cx="473.3968" cy="-234" rx="67.6881" ry="18"/>
<text text-anchor="middle" x="473.3968" y="-230.3" font-family="Times,serif" font-size="14.00" fill="#000000">[[4, 1], [10, 3]]</text>
</g>
<!-- [[10, 5], [8, 6], [4, 13], [10, 3], [8, 4], [4, 1]]&#45;&gt;[[4, 1], [10, 3]] -->
<g id="edge2" class="edge">
<title>[[10, 5], [8, 6], [4, 13], [10, 3], [8, 4], [4, 1]]&#45;&gt;[[4, 1], [10, 3]]</title>
<path fill="none" stroke="#000000" d="M395.3721,-288.0171C409.0519,-278.5464 425.9694,-266.8343 440.551,-256.7394"/>
<polygon fill="#000000" stroke="#000000" points="442.5946,-259.5815 448.8243,-251.0117 438.6101,-253.8262 442.5946,-259.5815"/>
</g>
<!-- [[10, 5], [4, 13], [8, 4]] -->
<g id="node4" class="node">
<title>[[10, 5], [4, 13], [8, 4]]</title>
<ellipse fill="none" stroke="#000000" cx="143.3968" cy="-162" rx="97.4827" ry="18"/>
<text text-anchor="middle" x="143.3968" y="-158.3" font-family="Times,serif" font-size="14.00" fill="#000000">[[10, 5], [4, 13], [8, 4]]</text>
</g>
<!-- [[10, 5], [8, 6], [4, 13], [8, 4]]&#45;&gt;[[10, 5], [4, 13], [8, 4]] -->
<g id="edge3" class="edge">
<title>[[10, 5], [8, 6], [4, 13], [8, 4]]&#45;&gt;[[10, 5], [4, 13], [8, 4]]</title>
<path fill="none" stroke="#000000" d="M235.5522,-216.3868C219.2127,-206.7438 198.7965,-194.6949 181.3362,-184.3905"/>
<polygon fill="#000000" stroke="#000000" points="182.9032,-181.2512 172.5122,-179.1829 179.3454,-187.2797 182.9032,-181.2512"/>
</g>
<!-- [[8, 6]] -->
<g id="node5" class="node">
<title>[[8, 6]]</title>
<ellipse fill="none" stroke="#000000" cx="296.3968" cy="-162" rx="37.0935" ry="18"/>
<text text-anchor="middle" x="296.3968" y="-158.3" font-family="Times,serif" font-size="14.00" fill="#000000">[[8, 6]]</text>
</g>
<!-- [[10, 5], [8, 6], [4, 13], [8, 4]]&#45;&gt;[[8, 6]] -->
<g id="edge4" class="edge">
<title>[[10, 5], [8, 6], [4, 13], [8, 4]]&#45;&gt;[[8, 6]]</title>
<path fill="none" stroke="#000000" d="M273.2194,-215.8314C276.6968,-207.7547 280.864,-198.0761 284.7,-189.1668"/>
<polygon fill="#000000" stroke="#000000" points="287.9441,-190.4824 288.6841,-179.9134 281.5147,-187.7141 287.9441,-190.4824"/>
</g>
<!-- [4, 1] -->
<g id="node10" class="node">
<title>[4, 1]</title>
<ellipse fill="none" stroke="#000000" cx="443.3968" cy="-162" rx="31.3957" ry="18"/>
<text text-anchor="middle" x="443.3968" y="-158.3" font-family="Times,serif" font-size="14.00" fill="#000000">[4, 1]</text>
</g>
<!-- [[4, 1], [10, 3]]&#45;&gt;[4, 1] -->
<g id="edge9" class="edge">
<title>[[4, 1], [10, 3]]&#45;&gt;[4, 1]</title>
<path fill="none" stroke="#000000" d="M465.8265,-215.8314C462.4612,-207.7547 458.4285,-198.0761 454.7163,-189.1668"/>
<polygon fill="#000000" stroke="#000000" points="457.9377,-187.798 450.8607,-179.9134 451.4761,-190.4904 457.9377,-187.798"/>
</g>
<!-- [10, 3] -->
<g id="node11" class="node">
<title>[10, 3]</title>
<ellipse fill="none" stroke="#000000" cx="529.3968" cy="-162" rx="36.2938" ry="18"/>
<text text-anchor="middle" x="529.3968" y="-158.3" font-family="Times,serif" font-size="14.00" fill="#000000">[10, 3]</text>
</g>
<!-- [[4, 1], [10, 3]]&#45;&gt;[10, 3] -->
<g id="edge10" class="edge">
<title>[[4, 1], [10, 3]]&#45;&gt;[10, 3]</title>
<path fill="none" stroke="#000000" d="M487.2395,-216.2022C494.0533,-207.4416 502.3851,-196.7293 509.837,-187.1482"/>
<polygon fill="#000000" stroke="#000000" points="512.7222,-189.1396 516.0989,-179.0972 507.1967,-184.842 512.7222,-189.1396"/>
</g>
<!-- [[10, 5], [8, 4]] -->
<g id="node6" class="node">
<title>[[10, 5], [8, 4]]</title>
<ellipse fill="none" stroke="#000000" cx="79.3968" cy="-90" rx="67.6881" ry="18"/>
<text text-anchor="middle" x="79.3968" y="-86.3" font-family="Times,serif" font-size="14.00" fill="#000000">[[10, 5], [8, 4]]</text>
</g>
<!-- [[10, 5], [4, 13], [8, 4]]&#45;&gt;[[10, 5], [8, 4]] -->
<g id="edge5" class="edge">
<title>[[10, 5], [4, 13], [8, 4]]&#45;&gt;[[10, 5], [8, 4]]</title>
<path fill="none" stroke="#000000" d="M127.5765,-144.2022C119.8263,-135.4832 110.3577,-124.8311 101.8723,-115.2849"/>
<polygon fill="#000000" stroke="#000000" points="104.2946,-112.7419 95.035,-107.593 99.0627,-117.3924 104.2946,-112.7419"/>
</g>
<!-- [[4, 13]] -->
<g id="node7" class="node">
<title>[[4, 13]]</title>
<ellipse fill="none" stroke="#000000" cx="207.3968" cy="-90" rx="42.4939" ry="18"/>
<text text-anchor="middle" x="207.3968" y="-86.3" font-family="Times,serif" font-size="14.00" fill="#000000">[[4, 13]]</text>
</g>
<!-- [[10, 5], [4, 13], [8, 4]]&#45;&gt;[[4, 13]] -->
<g id="edge6" class="edge">
<title>[[10, 5], [4, 13], [8, 4]]&#45;&gt;[[4, 13]]</title>
<path fill="none" stroke="#000000" d="M159.217,-144.2022C167.0829,-135.3531 176.7188,-124.5127 185.3005,-114.8583"/>
<polygon fill="#000000" stroke="#000000" points="188.1715,-116.8966 192.1992,-107.0972 182.9396,-112.2461 188.1715,-116.8966"/>
</g>
<!-- [10, 5] -->
<g id="node8" class="node">
<title>[10, 5]</title>
<ellipse fill="none" stroke="#000000" cx="36.3968" cy="-18" rx="36.2938" ry="18"/>
<text text-anchor="middle" x="36.3968" y="-14.3" font-family="Times,serif" font-size="14.00" fill="#000000">[10, 5]</text>
</g>
<!-- [[10, 5], [8, 4]]&#45;&gt;[10, 5] -->
<g id="edge7" class="edge">
<title>[[10, 5], [8, 4]]&#45;&gt;[10, 5]</title>
<path fill="none" stroke="#000000" d="M68.7676,-72.2022C63.6789,-63.6817 57.4877,-53.315 51.8878,-43.9385"/>
<polygon fill="#000000" stroke="#000000" points="54.8877,-42.1354 46.7553,-35.3446 48.8779,-45.7246 54.8877,-42.1354"/>
</g>
<!-- [8, 4] -->
<g id="node9" class="node">
<title>[8, 4]</title>
<ellipse fill="none" stroke="#000000" cx="122.3968" cy="-18" rx="31.3957" ry="18"/>
<text text-anchor="middle" x="122.3968" y="-14.3" font-family="Times,serif" font-size="14.00" fill="#000000">[8, 4]</text>
</g>
<!-- [[10, 5], [8, 4]]&#45;&gt;[8, 4] -->
<g id="edge8" class="edge">
<title>[[10, 5], [8, 4]]&#45;&gt;[8, 4]</title>
<path fill="none" stroke="#000000" d="M90.026,-72.2022C95.1524,-63.6186 101.3977,-53.1613 107.0301,-43.7303"/>
<polygon fill="#000000" stroke="#000000" points="110.0634,-45.4773 112.1859,-35.0972 104.0536,-41.8881 110.0634,-45.4773"/>
</g>
</g>
</svg>
