<?xml version="1.0" encoding="UTF-8" standalone="no"?>
<!DOCTYPE svg PUBLIC "-//W3C//DTD SVG 1.1//EN"
 "http://www.w3.org/Graphics/SVG/1.1/DTD/svg11.dtd">
<!-- Generated by graphviz version 2.40.1 (20161225.0304)
 -->
<!-- Title: weights_of_partition Pages: 1 -->
<svg width="350pt" height="332pt"
 viewBox="0.00 0.00 350.00 332.00" xmlns="http://www.w3.org/2000/svg" xmlns:xlink="http://www.w3.org/1999/xlink">
<g id="graph0" class="graph" transform="scale(1 1) rotate(0) translate(4 328)">
<title>weights_of_partition</title>
<polygon fill="#ffffff" stroke="transparent" points="-4,4 -4,-328 346,-328 346,4 -4,4"/>
<!-- 216 -->
<g id="node1" class="node">
<title>216</title>
<polygon fill="none" stroke="#000000" points="234,-324 180,-324 180,-288 234,-288 234,-324"/>
<text text-anchor="middle" x="207" y="-302.3" font-family="Times,serif" font-size="14.00" fill="#000000">216</text>
</g>
<!-- 182 -->
<g id="node2" class="node">
<title>182</title>
<polygon fill="none" stroke="#000000" points="198,-252 144,-252 144,-216 198,-216 198,-252"/>
<text text-anchor="middle" x="171" y="-230.3" font-family="Times,serif" font-size="14.00" fill="#000000">182</text>
</g>
<!-- 216&#45;&#45;182 -->
<g id="edge1" class="edge">
<title>216&#45;&#45;182</title>
<path fill="none" stroke="#000000" d="M197.9157,-287.8314C192.5,-277 185.6438,-263.2876 180.2066,-252.4133"/>
</g>
<!-- 34 -->
<g id="node3" class="node">
<title>34</title>
<polygon fill="none" stroke="#000000" points="270,-252 216,-252 216,-216 270,-216 270,-252"/>
<text text-anchor="middle" x="243" y="-230.3" font-family="Times,serif" font-size="14.00" fill="#000000">34</text>
</g>
<!-- 216&#45;&#45;34 -->
<g id="edge2" class="edge">
<title>216&#45;&#45;34</title>
<path fill="none" stroke="#000000" d="M216.0843,-287.8314C221.5,-277 228.3562,-263.2876 233.7934,-252.4133"/>
</g>
<!-- 134 -->
<g id="node4" class="node">
<title>134</title>
<polygon fill="none" stroke="#000000" points="126,-180 72,-180 72,-144 126,-144 126,-180"/>
<text text-anchor="middle" x="99" y="-158.3" font-family="Times,serif" font-size="14.00" fill="#000000">134</text>
</g>
<!-- 182&#45;&#45;134 -->
<g id="edge3" class="edge">
<title>182&#45;&#45;134</title>
<path fill="none" stroke="#000000" d="M152.8314,-215.8314C142,-205 128.2876,-191.2876 117.4133,-180.4133"/>
</g>
<!-- 48 -->
<g id="node5" class="node">
<title>48</title>
<polygon fill="none" stroke="#000000" points="198,-180 144,-180 144,-144 198,-144 198,-180"/>
<text text-anchor="middle" x="171" y="-158.3" font-family="Times,serif" font-size="14.00" fill="#000000">48</text>
</g>
<!-- 182&#45;&#45;48 -->
<g id="edge4" class="edge">
<title>182&#45;&#45;48</title>
<path fill="none" stroke="#000000" d="M171,-215.8314C171,-205 171,-191.2876 171,-180.4133"/>
</g>
<!-- 4 -->
<g id="node10" class="node">
<title>4</title>
<polygon fill="none" stroke="#000000" points="270,-180 216,-180 216,-144 270,-144 270,-180"/>
<text text-anchor="middle" x="243" y="-158.3" font-family="Times,serif" font-size="14.00" fill="#000000">4</text>
</g>
<!-- 34&#45;&#45;4 -->
<g id="edge9" class="edge">
<title>34&#45;&#45;4</title>
<path fill="none" stroke="#000000" d="M243,-215.8314C243,-205 243,-191.2876 243,-180.4133"/>
</g>
<!-- 30 -->
<g id="node11" class="node">
<title>30</title>
<polygon fill="none" stroke="#000000" points="342,-180 288,-180 288,-144 342,-144 342,-180"/>
<text text-anchor="middle" x="315" y="-158.3" font-family="Times,serif" font-size="14.00" fill="#000000">30</text>
</g>
<!-- 34&#45;&#45;30 -->
<g id="edge10" class="edge">
<title>34&#45;&#45;30</title>
<path fill="none" stroke="#000000" d="M261.1686,-215.8314C272,-205 285.7124,-191.2876 296.5867,-180.4133"/>
</g>
<!-- 82 -->
<g id="node6" class="node">
<title>82</title>
<polygon fill="none" stroke="#000000" points="90,-108 36,-108 36,-72 90,-72 90,-108"/>
<text text-anchor="middle" x="63" y="-86.3" font-family="Times,serif" font-size="14.00" fill="#000000">82</text>
</g>
<!-- 134&#45;&#45;82 -->
<g id="edge5" class="edge">
<title>134&#45;&#45;82</title>
<path fill="none" stroke="#000000" d="M89.9157,-143.8314C84.5,-133 77.6438,-119.2876 72.2066,-108.4133"/>
</g>
<!-- 52 -->
<g id="node7" class="node">
<title>52</title>
<polygon fill="none" stroke="#000000" points="162,-108 108,-108 108,-72 162,-72 162,-108"/>
<text text-anchor="middle" x="135" y="-86.3" font-family="Times,serif" font-size="14.00" fill="#000000">52</text>
</g>
<!-- 134&#45;&#45;52 -->
<g id="edge6" class="edge">
<title>134&#45;&#45;52</title>
<path fill="none" stroke="#000000" d="M108.0843,-143.8314C113.5,-133 120.3562,-119.2876 125.7934,-108.4133"/>
</g>
<!-- 50 -->
<g id="node8" class="node">
<title>50</title>
<polygon fill="none" stroke="#000000" points="54,-36 0,-36 0,0 54,0 54,-36"/>
<text text-anchor="middle" x="27" y="-14.3" font-family="Times,serif" font-size="14.00" fill="#000000">50</text>
</g>
<!-- 82&#45;&#45;50 -->
<g id="edge7" class="edge">
<title>82&#45;&#45;50</title>
<path fill="none" stroke="#000000" d="M53.9157,-71.8314C48.5,-61 41.6438,-47.2876 36.2066,-36.4133"/>
</g>
<!-- 32 -->
<g id="node9" class="node">
<title>32</title>
<polygon fill="none" stroke="#000000" points="126,-36 72,-36 72,0 126,0 126,-36"/>
<text text-anchor="middle" x="99" y="-14.3" font-family="Times,serif" font-size="14.00" fill="#000000">32</text>
</g>
<!-- 82&#45;&#45;32 -->
<g id="edge8" class="edge">
<title>82&#45;&#45;32</title>
<path fill="none" stroke="#000000" d="M72.0843,-71.8314C77.5,-61 84.3562,-47.2876 89.7934,-36.4133"/>
</g>
</g>
</svg>
